<?xml version="1.0" encoding="UTF-8"?>
<svg width="20px" height="20px" viewBox="0 0 20 20" version="1.1" xmlns="http://www.w3.org/2000/svg" xmlns:xlink="http://www.w3.org/1999/xlink">
    <title>D07D77F3-C4A5-4072-B16B-886BE45976E3</title>
    <g id="Page-1" stroke="none" stroke-width="1" fill="none" fill-rule="evenodd">
        <g id="adding-new-API-Calls" transform="translate(-1008.000000, -274.000000)" fill="#CF272D" fill-rule="nonzero">
            <g id="Dropdown/Select/Default-Copy-15" transform="translate(998.000000, 264.000000)">
                <g id="Twilio" transform="translate(10.000000, 10.000000)">
                    <path d="M10,17.3643836 C5.93424658,17.3643836 2.63561644,14.0657534 2.63561644,10 C2.63561644,5.93424658 5.93424658,2.63561644 10,2.63561644 C14.0657534,2.63561644 17.3643836,5.93424658 17.3643836,10 C17.3643836,14.0657534 14.0657534,17.3643836 10,17.3643836 Z M10,0 C4.47671233,0 0,4.47671233 0,10 C0,15.5232877 4.47671233,20 10,20 C15.5232877,20 20,15.5232877 20,10 C20,4.47671233 15.5232877,0 10,0 Z" id="XMLID_5_"></path>
                    <path d="M10.4098361,7.5136612 C10.4098361,6.36612022 11.3387978,5.44262295 12.4808743,5.44262295 C13.6284153,5.44262295 14.5519126,6.3715847 14.5519126,7.5136612 C14.5519126,8.66120219 13.6229508,9.58472344 12.4808743,9.58472344 C11.3387978,9.59016393 10.4098361,8.66120219 10.4098361,7.5136612" id="XMLID_6_"></path>
                    <path d="M10.4098361,12.4863388 C10.4098361,11.3387978 11.3387978,10.4153005 12.4808743,10.4153005 C13.6284153,10.4153005 14.5519126,11.3442623 14.5519126,12.4863388 C14.5519126,13.6338798 13.6229508,14.557377 12.4808743,14.557377 C11.3387978,14.557377 10.4098361,13.6284153 10.4098361,12.4863388" id="XMLID_7_"></path>
                    <path d="M5.44262295,12.4863388 C5.44262295,11.3387978 6.3715847,10.4153005 7.5136612,10.4153005 C8.66120219,10.4153005 9.58469945,11.3442623 9.58469945,12.4863388 C9.58469945,13.6338798 8.6557377,14.557377 7.5136612,14.557377 C6.3715847,14.557377 5.44262295,13.6284153 5.44262295,12.4863388" id="XMLID_8_"></path>
                    <path d="M5.44262295,7.5136612 C5.44262295,6.36612022 6.3715847,5.44262295 7.5136612,5.44262295 C8.66120219,5.44262295 9.58469945,6.3715847 9.58469945,7.5136612 C9.58469945,8.6557377 8.6557377,9.58472344 7.5136612,9.58472344 C6.3715847,9.59016393 5.44262295,8.66120219 5.44262295,7.5136612" id="XMLID_9_"></path>
                </g>
            </g>
        </g>
    </g>
</svg>